HIERARCHY
ROOT Hips
{
	OFFSET 0.000000 0.000000 0.000000
	CHANNELS 6 Xposition Yposition Zposition Xrotation Yrotation Zrotation
	JOINT Chest
	{
		OFFSET 0.000000 0.009282 11.569106
		CHANNELS 3 Xrotation Yrotation Zrotation
		JOINT Chest2
		{
			OFFSET 0.000000 -0.016863 9.269641
			CHANNELS 3 Xrotation Yrotation Zrotation
			JOINT Chest3
			{
				OFFSET 0.000000 0.000000 8.374491
				CHANNELS 3 Xrotation Yrotation Zrotation
				JOINT Chest4
				{
					OFFSET 0.000000 0.000000 8.374493
					CHANNELS 3 Xrotation Yrotation Zrotation
					JOINT Neck
					{
						OFFSET 0.000000 -0.000001 12.152554
						CHANNELS 3 Xrotation Yrotation Zrotation
						JOINT Head
						{
							OFFSET 0.000000 -0.040100 7.802319
							CHANNELS 3 Xrotation Yrotation Zrotation
							End Site
							{
								OFFSET 0.000000 -0.020946 14.853096
							}
						}
					}
					JOINT RightCollar
					{
						OFFSET -2.894404 0.000000 6.791374
						CHANNELS 3 Xrotation Yrotation Zrotation
						JOINT RightShoulder
						{
							OFFSET -13.574684 0.000000 0.000000
							CHANNELS 3 Xrotation Yrotation Zrotation
							JOINT RightElbow
							{
								OFFSET -23.923903 0.000000 0.000000
								CHANNELS 3 Xrotation Yrotation Zrotation
								JOINT RightWrist
								{
									OFFSET -19.846718 -0.012765 0.000000
									CHANNELS 3 Xrotation Yrotation Zrotation
									End Site
									{
										OFFSET -14.973145 0.000000 0.000000
									}
								}
							}
						}
					}
					JOINT LeftCollar
					{
						OFFSET 2.894404 0.000000 6.791374
						CHANNELS 3 Xrotation Yrotation Zrotation
						JOINT LeftShoulder
						{
							OFFSET 13.574684 0.000000 0.000000
							CHANNELS 3 Xrotation Yrotation Zrotation
							JOINT LeftElbow
							{
								OFFSET 23.923903 0.000000 0.000000
								CHANNELS 3 Xrotation Yrotation Zrotation
								JOINT LeftWrist
								{
									OFFSET 19.846718 -0.012765 0.000000
									CHANNELS 3 Xrotation Yrotation Zrotation
									End Site
									{
										OFFSET 14.973145 0.000000 0.000000
									}
								}
							}
						}
					}
				}
			}
		}
	}
	JOINT RightHip
	{
		OFFSET -9.469263 -0.004642 0.045487
		CHANNELS 3 Xrotation Yrotation Zrotation
		JOINT RightKnee
		{
			OFFSET 0.000000 -0.002666 -40.478676
			CHANNELS 3 Xrotation Yrotation Zrotation
			JOINT RightAnkle
			{
				OFFSET 0.000000 -0.049110 -35.224068
				CHANNELS 3 Xrotation Yrotation Zrotation
				JOINT RightToe
				{
					OFFSET 0.000000 -12.539530 -6.151390
					CHANNELS 3 Xrotation Yrotation Zrotation
					End Site
					{
						OFFSET 0.000000 -5.044995 -1.291870
					}
				}
			}
		}
	}
	JOINT LeftHip
	{
		OFFSET 9.469263 -0.004642 0.045487
		CHANNELS 3 Xrotation Yrotation Zrotation
		JOINT LeftKnee
		{
			OFFSET 0.000000 -0.002666 -40.478676
			CHANNELS 3 Xrotation Yrotation Zrotation
			JOINT LeftAnkle
			{
				OFFSET 0.000000 -0.049110 -35.224068
				CHANNELS 3 Xrotation Yrotation Zrotation
				JOINT LeftToe
				{
					OFFSET 0.000000 -12.539530 -6.151390
					CHANNELS 3 Xrotation Yrotation Zrotation
					End Site
					{
						OFFSET 0.000000 -5.044995 -1.291870
					}
				}
			}
		}
	}
}
MOTION
Frames: 7
Frame Time: 0.016667
-11.618789 -5.284272 82.917488 2.862622 7.651239 -109.941573 4.888597 1.397288 5.857550 2.185579 0.566940 2.575776 2.185580 0.566941 2.575774 1.641596 0.416009 1.933873 17.964217 -4.476364 -6.164185 -3.021764 -6.102051 -12.763034 1.184870 -10.416295 -12.196170 -29.293886 -76.907650 -18.723522 33.796336 -0.788953 3.358897 -0.308284 11.635004 18.452448 8.039392 6.325552 -17.403588 -4.017536 76.018134 -8.291592 9.347647 -0.738170 -2.042542 16.186507 -21.518209 -17.467488 10.955903 0.336176 -3.113427 3.435026 -0.940907 -1.308893 -5.782216 0.344834 1.342223 -0.028118 -0.047500 -0.003676 11.799576 -0.371003 1.604577 0.940707 -0.079256 -3.013087 -4.912979 0.290534 2.655265 0.026651 -0.013316 0.003800 
-11.630887 -5.280912 82.917572 2.812184 7.583454 -109.869255 4.842255 1.383580 5.835381 2.165860 0.560682 2.565204 2.165860 0.560682 2.565201 1.626769 0.411436 1.925903 17.894522 -4.408448 -6.116197 -3.144229 -5.988003 -12.655323 1.191523 -10.425913 -12.191751 -29.425630 -76.880302 -18.885552 33.889722 -0.729670 3.144386 -0.169555 11.450928 18.289013 8.070844 6.332213 -17.366413 -4.443620 76.166896 -7.837448 9.102026 -0.912236 -1.760181 16.454988 -21.340955 -17.264164 10.914199 0.354063 -3.067167 3.385868 -0.957180 -1.421134 -5.772845 0.336567 1.350968 -0.025499 -0.030081 -0.004849 11.757623 -0.361943 1.557516 0.862281 -0.076803 -3.037542 -4.875746 0.308676 2.641339 0.028952 -0.024798 0.004953 
-11.641329 -5.277953 82.916649 2.765503 7.524269 -109.797907 4.808368 1.373809 5.823070 2.151595 0.555974 2.558383 2.151595 0.555974 2.558382 1.616044 0.407988 1.920758 17.833274 -4.341185 -6.071564 -3.251088 -5.874905 -12.553460 1.210764 -10.434762 -12.186393 -29.637079 -76.870712 -19.106466 33.917258 -0.669078 2.945854 -0.059102 11.326296 18.160563 8.092357 6.332212 -17.340363 -4.932788 76.319243 -7.349259 8.780451 -1.097214 -1.463635 16.676482 -21.177360 -17.089133 10.871433 0.370826 -3.016768 3.356013 -0.975167 -1.532170 -5.775797 0.332463 1.342889 -0.020348 -0.016911 -0.005874 11.716353 -0.353853 1.510155 0.800345 -0.073991 -3.055399 -4.849021 0.321806 2.629853 0.034618 -0.030132 0.006503 
-11.649836 -5.274504 82.915855 2.722796 7.483309 -109.726340 4.789389 1.365165 5.818598 2.143781 0.552093 2.555477 2.143781 0.552093 2.555475 1.610166 0.405120 1.918559 17.774345 -4.277514 -6.030883 -3.354061 -5.767304 -12.459852 1.210025 -10.446868 -12.181626 -29.777757 -76.861300 -19.262358 33.866974 -0.613850 2.757544 -0.019482 11.231504 18.094947 8.095442 6.334796 -17.327982 -5.259258 76.449003 -7.016457 8.382421 -1.275860 -1.183499 16.801657 -21.081253 -16.950919 10.838820 0.392316 -2.990261 3.342430 -0.995529 -1.611974 -5.786631 0.333368 1.336208 -0.015408 -0.008391 -0.005615 11.681705 -0.342130 1.468437 0.760816 -0.076055 -3.080413 -4.831032 0.332437 2.641124 0.038907 -0.030365 0.007356 
-11.657230 -5.267799 82.915985 2.686254 7.465353 -109.655415 4.782720 1.356715 5.819483 2.141289 0.549067 2.555302 2.141290 0.549067 2.555303 1.608284 0.402861 1.918413 17.720856 -4.216292 -5.985718 -3.447383 -5.666225 -12.358613 1.195464 -10.452944 -12.170967 -29.830831 -76.852585 -19.336047 33.774234 -0.566265 2.581153 -0.005098 11.176075 18.056032 8.091824 6.326888 -17.314190 -5.335016 76.560779 -6.934870 7.965198 -1.441292 -0.933314 16.827947 -21.056686 -16.871370 10.825925 0.408556 -2.991490 3.337899 -1.008459 -1.655934 -5.802118 0.339977 1.315703 -0.011344 -0.004344 -0.004344 11.659649 -0.326882 1.440946 0.744213 -0.084203 -3.111815 -4.821203 0.343139 2.617459 0.040014 -0.027128 0.007937 
-11.664268 -5.256045 82.916656 2.656457 7.469256 -109.582995 4.784993 1.351005 5.825602 2.142483 0.547052 2.557535 2.142483 0.547051 2.557533 1.609173 0.401338 1.920080 17.687265 -4.159061 -5.935876 -3.504399 -5.575837 -12.249292 1.185883 -10.448069 -12.162016 -29.898791 -76.849628 -19.412637 33.714808 -0.519982 2.426049 0.020373 11.117134 18.008933 8.093457 6.309564 -17.296382 -5.306051 76.659482 -6.963356 7.558339 -1.602694 -0.735031 16.868933 -21.080906 -16.828497 10.832317 0.417824 -3.024079 3.343727 -1.011471 -1.670397 -5.822912 0.349543 1.288268 -0.009082 -0.004180 -0.001776 11.653530 -0.317015 1.420612 0.743577 -0.090076 -3.140081 -4.818003 0.355236 2.603940 0.039378 -0.022357 0.007162 
-11.668845 -5.242239 82.917389 2.627400 7.488989 -109.506640 4.790658 1.349840 5.833124 2.145534 0.546724 2.560371 2.145534 0.546724 2.560371 1.611462 0.401069 1.922210 17.683933 -4.106226 -5.875229 -3.506054 -5.499820 -12.120442 1.162641 -10.438248 -12.154946 -29.949082 -76.835551 -19.491956 33.711853 -0.463838 2.316612 0.058767 11.003246 17.951691 8.099815 6.293748 -17.288315 -5.542419 76.739866 -6.728047 7.149426 -1.753143 -0.609475 16.954340 -21.098179 -16.807368 10.845467 0.434358 -3.099104 3.368050 -1.023204 -1.655866 -5.853963 0.365531 1.277114 -0.006455 -0.003896 -0.001418 11.654745 -0.305171 1.396657 0.755204 -0.095243 -3.172617 -4.815769 0.366315 2.593882 0.036221 -0.017309 0.006721 
